<?xml version="1.0" encoding="utf-8"?>
<!-- Generator: Adobe Illustrator 19.2.1, SVG Export Plug-In . SVG Version: 6.00 Build 0)  -->
<svg version="1.1" id="Layer_1" xmlns="http://www.w3.org/2000/svg" xmlns:xlink="http://www.w3.org/1999/xlink" x="0px" y="0px"
	 viewBox="0 0 48.4 48.4" style="enable-background:new 0 0 48.4 48.4;" xml:space="preserve">
<style type="text/css">
	.st0{fill:#B29883;}
</style>
<g>
	<g>
		<path class="st0" d="M24.2,48.4C10.8,48.4,0,37.5,0,24.2C0,10.8,10.8,0,24.2,0c13.3,0,24.2,10.8,24.2,24.2
			C48.4,37.5,37.5,48.4,24.2,48.4z M24.2,1.2c-12.7,0-23,10.3-23,23c0,12.7,10.3,23,23,23c12.7,0,23-10.3,23-23
			C47.2,11.5,36.9,1.2,24.2,1.2z"/>
		<path class="st0" d="M19.1,20.6h2.2v-2.1c0-0.9,0-2.4,0.7-3.3c0.7-1,1.7-1.6,3.4-1.6c2.8,0,3.9,0.4,3.9,0.4l-0.5,3.3
			c0,0-0.9-0.3-1.8-0.3c-0.9,0-1.6,0.3-1.6,1.2v2.5h3.5l-0.2,3.2h-3.3v11h-4.1v-11h-2.2V20.6z"/>
	</g>
</g>
</svg>
