<?xml version="1.0" encoding="utf-8"?>
<!-- Generator: Adobe Illustrator 19.2.1, SVG Export Plug-In . SVG Version: 6.00 Build 0)  -->
<svg version="1.1" id="Layer_1" xmlns="http://www.w3.org/2000/svg" xmlns:xlink="http://www.w3.org/1999/xlink" x="0px" y="0px"
	 viewBox="0 0 37 36" style="enable-background:new 0 0 37 36;" xml:space="preserve">
<style type="text/css">
	.st0{fill-rule:evenodd;clip-rule:evenodd;fill:none;stroke:#C9A749;stroke-width:2;stroke-miterlimit:10;}
</style>
<g>
	<path class="st0" d="M18.8,30.6c-1.8-1.7-3.6-3.3-5.3-4.9C11.7,23.9,9.8,22,8,20.1c-1.6-1.7-2.8-3.7-3.2-6.1
		c-1.1-5.1,2.9-8.8,6.1-9.3c3-0.4,5.4,0.7,7.3,3c0.1,0.1,0.2,0.3,0.3,0.5c0.1,0.1,0.2,0.3,0.3,0.5c0.2-0.3,0.4-0.6,0.6-0.8
		c1.2-1.6,2.7-2.7,4.7-3.1c3.1-0.6,6,0.7,7.7,3.5c1.7,2.7,1.4,5.5,0.1,8.2c-1,2.1-2.5,3.9-4.2,5.5C24.8,24.9,21.8,27.7,18.8,30.6z"
		/>
</g>
</svg>
