<?xml version="1.0" encoding="utf-8"?>
<!-- Generator: Adobe Illustrator 19.2.1, SVG Export Plug-In . SVG Version: 6.00 Build 0)  -->
<svg version="1.1" id="Layer_1" xmlns="http://www.w3.org/2000/svg" xmlns:xlink="http://www.w3.org/1999/xlink" x="0px" y="0px"
	 viewBox="0 0 48.4 48.4" style="enable-background:new 0 0 48.4 48.4;" xml:space="preserve">
<style type="text/css">
	.st0{fill:#B29883;}
</style>
<g>
	<g>
		<path class="st0" d="M24.2,48.4C10.8,48.4,0,37.5,0,24.2C0,10.8,10.8,0,24.2,0c13.3,0,24.2,10.8,24.2,24.2
			C48.4,37.5,37.5,48.4,24.2,48.4z M24.2,1.2c-12.7,0-23,10.3-23,23c0,12.7,10.3,23,23,23c12.7,0,23-10.3,23-23
			C47.2,11.5,36.9,1.2,24.2,1.2z"/>
		<path class="st0" d="M30.7,13.6h-13c-2.3,0-4.1,1.8-4.1,4.1V22v8.7c0,2.3,1.8,4.1,4.1,4.1h13c2.3,0,4.1-1.8,4.1-4.1V22v-4.3
			C34.8,15.4,33,13.6,30.7,13.6z M31.9,16l0.5,0v0.5v3.1l-3.6,0l0-3.6L31.9,16z M21.2,22c0.7-0.9,1.8-1.6,3-1.6c1.2,0,2.4,0.6,3,1.6
			c0.4,0.6,0.7,1.4,0.7,2.2c0,2.1-1.7,3.7-3.7,3.7c-2.1,0-3.7-1.7-3.7-3.7C20.4,23.4,20.7,22.6,21.2,22z M32.7,30.7c0,1.1-0.9,2-2,2
			h-13c-1.1,0-2-0.9-2-2V22h3.2c-0.3,0.7-0.4,1.4-0.4,2.2c0,3.2,2.6,5.8,5.8,5.8c3.2,0,5.8-2.6,5.8-5.8c0-0.8-0.2-1.5-0.4-2.2h3.2
			V30.7z"/>
	</g>
</g>
</svg>
