<?xml version="1.0" encoding="utf-8"?>
<!-- Generator: Adobe Illustrator 19.2.1, SVG Export Plug-In . SVG Version: 6.00 Build 0)  -->
<svg version="1.1" id="Layer_1" xmlns="http://www.w3.org/2000/svg" xmlns:xlink="http://www.w3.org/1999/xlink" x="0px" y="0px"
	 viewBox="0 0 300.2 298.5" style="enable-background:new 0 0 300.2 298.5;" xml:space="preserve">
<style type="text/css">
	.st0{fill:#969696;}
	.st1{fill:none;stroke:#B29783;stroke-width:13;stroke-miterlimit:10;}
</style>
<g>
	<path class="st0" d="M187.1,82.8c-10.5,0-19.5,0.9-27.1,3.1c-0.5,0.1-1,0.2-1.4,0.4c5,2.4,9.7,5.9,14.1,9.2
		c3.9-0.6,8.1-0.7,12.8-0.7h23.7v55h-28c-11.7,0-20.3-2.6-25.8-8s-8.2-12.6-8.2-21.8c0.3-5.3,1.5-9.6,3.7-13.1
		c-3.5-2.4-8.2-4-12.3-4.8c-2.7,4.9-4.3,10.9-4.7,18c-0.1,0.9-0.2,2.1-0.2,3.6c0,7.4,2,14,5.9,19.8s9.4,10.3,16.4,13.5
		s15,4.8,23.8,4.8h29.4v54h13v-133H187.1z"/>
</g>
<rect x="32.6" y="31.8" class="st1" width="235" height="235"/>
<g>
	<g>
		<path class="st0" d="M176.5,166.7c-3.2,10-8.7,18-16.7,23.8c-12,8.7-27.2,13.2-45.7,13.2h-21v-109h23.3c10.5,0,19.8,1.3,27.8,4.3
			s14.6,7,19.8,12.2s9.1,11.2,11.6,17.9c1.9,5.1,3.1,10.4,3.6,15.9c4.5,0.3,8.9,0.5,13.4,0.2c-0.5-7.4-2-14.5-4.6-21.2
			c-3.2-8.2-8-15.4-14.4-21.7c-6.4-6.3-14.5-11-24-14.5c-9.6-3.5-20.6-5.1-33.1-5.1H80.1v133h43.3c8.8,0,17.3-1.5,25.5-4.4
			c8.3-2.9,15.7-7.3,22.3-13s11.8-12.7,15.7-20.9c1.6-3.5,2.9-7.1,3.8-10.9C186.1,166.1,181.3,166.5,176.5,166.7z"/>
	</g>
</g>
</svg>
