<?xml version="1.0" encoding="utf-8"?>
<!-- Generator: Adobe Illustrator 19.2.1, SVG Export Plug-In . SVG Version: 6.00 Build 0)  -->
<svg version="1.1" id="Layer_1" xmlns="http://www.w3.org/2000/svg" xmlns:xlink="http://www.w3.org/1999/xlink" x="0px" y="0px"
	 viewBox="0 0 300.2 298.5" style="enable-background:new 0 0 300.2 298.5;" xml:space="preserve">
<style type="text/css">
	.st0{fill:#969696;}
	.st1{fill:none;stroke:#B29783;stroke-width:10.9605;stroke-miterlimit:10;}
</style>
<g>
	<path class="st0" d="M181.3,93.2c-8.9,0-16.4,0.8-22.8,2.6c-0.4,0.1-0.8,0.2-1.2,0.3c4.2,2,8.2,5,11.9,7.8
		c3.3-0.5,6.8-0.6,10.8-0.6h20v46.4h-23.6c-9.9,0-17.1-2.2-21.8-6.7c-4.6-4.6-6.9-10.6-6.9-18.4c0.3-4.5,1.3-8.1,3.1-11
		c-3-2-6.9-3.4-10.4-4c-2.3,4.1-3.6,9.2-4,15.2c-0.1,0.8-0.2,1.8-0.2,3c0,6.2,1.7,11.8,5,16.7c3.3,4.9,7.9,8.7,13.8,11.4
		c5.9,2.7,12.6,4,20.1,4h24.8v45.5h11V93.2H181.3z"/>
</g>
<rect x="51" y="50.2" transform="matrix(0.7071 -0.7071 0.7071 0.7071 -61.6078 149.8657)" class="st1" width="198.1" height="198.1"/>
<g>
	<g>
		<path class="st0" d="M172.4,164c-2.7,8.4-7.3,15.2-14.1,20.1c-10.1,7.3-22.9,11.1-38.5,11.1H102v-91.9h19.6
			c8.9,0,16.7,1.1,23.4,3.6c6.7,2.5,12.3,5.9,16.7,10.3c4.4,4.4,7.7,9.4,9.8,15.1c1.6,4.3,2.6,8.8,3,13.4c3.8,0.3,7.5,0.4,11.3,0.2
			c-0.4-6.2-1.7-12.2-3.9-17.9c-2.7-6.9-6.7-13-12.1-18.3c-5.4-5.3-12.2-9.3-20.2-12.2c-8.1-3-17.4-4.3-27.9-4.3H91.1v112.1h36.5
			c7.4,0,14.6-1.3,21.5-3.7c7-2.4,13.2-6.2,18.8-11c5.6-4.8,9.9-10.7,13.2-17.6c1.3-3,2.4-6,3.2-9.2
			C180.5,163.5,176.4,163.8,172.4,164z"/>
	</g>
</g>
</svg>
