<?xml version="1.0" encoding="utf-8"?>
<!-- Generator: Adobe Illustrator 19.2.1, SVG Export Plug-In . SVG Version: 6.00 Build 0)  -->
<svg version="1.1" id="Layer_1" xmlns="http://www.w3.org/2000/svg" xmlns:xlink="http://www.w3.org/1999/xlink" x="0px" y="0px"
	 viewBox="0 0 37 36" style="enable-background:new 0 0 37 36;" xml:space="preserve">
<style type="text/css">
	.st0{fill:#93918C;}
</style>
<path class="st0" d="M33.3,32.5l-8.7-9.1c2.2-2.2,3.6-5.3,3.6-8.7c0-6.8-5.5-12.3-12.3-12.3C9.1,2.4,3.5,8,3.5,14.8
	c0,6.8,5.5,12.3,12.3,12.3c3,0,5.7-1.1,7.9-2.8l8.8,9.1c0.1,0.1,0.3,0.2,0.4,0.2c0.1,0,0.3-0.1,0.4-0.2
	C33.5,33.2,33.6,32.8,33.3,32.5z M15.9,25.9c-6.2,0-11.2-5-11.2-11.2c0-6.2,5-11.2,11.2-11.2S27,8.6,27,14.8
	C27,20.9,22,25.9,15.9,25.9z"/>
</svg>
