<?xml version="1.0" encoding="utf-8"?>
<!-- Generator: Adobe Illustrator 19.2.1, SVG Export Plug-In . SVG Version: 6.00 Build 0)  -->
<svg version="1.1" id="Layer_1" xmlns="http://www.w3.org/2000/svg" xmlns:xlink="http://www.w3.org/1999/xlink" x="0px" y="0px"
	 viewBox="0 0 48.4 48.4" style="enable-background:new 0 0 48.4 48.4;" xml:space="preserve">
<style type="text/css">
	.st0{fill:#B29883;}
</style>
<g>
	<g>
		<path class="st0" d="M24.2,48.4C10.8,48.4,0,37.5,0,24.2C0,10.8,10.8,0,24.2,0c13.3,0,24.2,10.8,24.2,24.2
			C48.4,37.5,37.5,48.4,24.2,48.4z M24.2,1.2c-12.7,0-23,10.3-23,23c0,12.7,10.3,23,23,23c12.7,0,23-10.3,23-23
			C47.2,11.5,36.9,1.2,24.2,1.2z"/>
		<path class="st0" d="M24.2,13.5c-5.8,0-10.6,4.8-10.6,10.6c0,4.3,2.6,8.1,6.3,9.7c0-0.7,0-1.6,0.2-2.4c0.2-0.9,1.4-5.8,1.4-5.8
			s-0.3-0.7-0.3-1.7c0-1.6,0.9-2.7,2-2.7c1,0,1.4,0.7,1.4,1.6c0,1-0.6,2.4-0.9,3.8c-0.3,1.1,0.6,2,1.7,2c2,0,3.4-2.6,3.4-5.6
			c0-2.3-1.6-4.1-4.4-4.1c-3.2,0-5.2,2.4-5.2,5.1c0,0.9,0.3,1.6,0.7,2.1c0.2,0.2,0.2,0.3,0.2,0.6c-0.1,0.2-0.2,0.7-0.2,0.9
			c-0.1,0.3-0.3,0.4-0.5,0.3c-1.5-0.6-2.2-2.2-2.2-4.1c0-3,2.5-6.6,7.6-6.6c4,0,6.7,2.9,6.7,6.1c0,4.2-2.3,7.3-5.7,7.3
			c-1.1,0-2.2-0.6-2.6-1.3c0,0-0.6,2.4-0.7,2.9c-0.2,0.8-0.7,1.6-1.1,2.3c1,0.3,2,0.4,3,0.4c5.9,0,10.6-4.8,10.6-10.6
			C34.8,18.3,30,13.5,24.2,13.5"/>
	</g>
</g>
</svg>
