<?xml version="1.0" encoding="utf-8"?>
<!-- Generator: Adobe Illustrator 19.2.1, SVG Export Plug-In . SVG Version: 6.00 Build 0)  -->
<svg version="1.1" id="Layer_1" xmlns="http://www.w3.org/2000/svg" xmlns:xlink="http://www.w3.org/1999/xlink" x="0px" y="0px"
	 viewBox="0 0 48.4 48.4" style="enable-background:new 0 0 48.4 48.4;" xml:space="preserve">
<style type="text/css">
	.st0{fill:#B29883;}
</style>
<g>
	<g>
		<path class="st0" d="M24.2,48.4C10.8,48.4,0,37.5,0,24.2C0,10.8,10.8,0,24.2,0c13.3,0,24.2,10.8,24.2,24.2
			C48.4,37.5,37.5,48.4,24.2,48.4z M24.2,1.2c-12.7,0-23,10.3-23,23c0,12.7,10.3,23,23,23c12.7,0,23-10.3,23-23
			C47.2,11.5,36.9,1.2,24.2,1.2z"/>
		<path class="st0" d="M24.3,13.6v5.4h5v3.3h-5v5.4c0,1.2,0.1,2,0.2,2.4c0.1,0.4,0.4,0.6,0.7,0.8c0.5,0.3,1,0.4,1.6,0.4
			c1.1,0,2.1-0.4,3.2-1v3.4c-0.9,0.4-1.7,0.7-2.5,0.9c-0.7,0.2-1.5,0.3-2.4,0.3c-1,0-1.8-0.1-2.6-0.4c-0.7-0.2-1.4-0.6-1.9-1
			c-0.5-0.5-0.9-0.9-1.1-1.4c-0.2-0.5-0.3-1.2-0.3-2.2v-7.4H17v-3c0.8-0.3,1.6-0.7,2.1-1.2c0.6-0.5,1.1-1.1,1.4-1.8
			c0.4-0.7,0.6-1.6,0.7-2.7H24.3z"/>
	</g>
</g>
</svg>
