<?xml version="1.0" encoding="utf-8"?>
<!-- Generator: Adobe Illustrator 19.2.1, SVG Export Plug-In . SVG Version: 6.00 Build 0)  -->
<svg version="1.1" id="Layer_1" xmlns="http://www.w3.org/2000/svg" xmlns:xlink="http://www.w3.org/1999/xlink" x="0px" y="0px"
	 viewBox="0 0 48.4 48.4" style="enable-background:new 0 0 48.4 48.4;" xml:space="preserve">
<style type="text/css">
	.st0{fill:#B29883;}
</style>
<g>
	<g>
		<path class="st0" d="M24.2,48.4C10.8,48.4,0,37.5,0,24.2C0,10.8,10.8,0,24.2,0c13.3,0,24.2,10.8,24.2,24.2
			C48.4,37.5,37.5,48.4,24.2,48.4z M24.2,1.2c-12.7,0-23,10.3-23,23c0,12.7,10.3,23,23,23c12.7,0,23-10.3,23-23
			C47.2,11.5,36.9,1.2,24.2,1.2z"/>
		<path class="st0" d="M13.5,24.2c0,4.2,2.5,7.8,6,9.5l-5.1-13.9C13.9,21.2,13.5,22.6,13.5,24.2z M31.4,23.6c0-1.3-0.5-2.2-0.9-2.9
			c-0.5-0.9-1-1.6-1-2.5c0-1,0.7-1.9,1.8-1.9c0,0,0.1,0,0.1,0c-1.9-1.7-4.4-2.8-7.2-2.8c-3.7,0-7,1.9-8.9,4.8c0.3,0,0.5,0,0.7,0
			c1.1,0,2.8-0.1,2.8-0.1c0.6,0,0.6,0.8,0.1,0.9c0,0-0.6,0.1-1.2,0.1l3.9,11.5l2.3-7l-1.7-4.5c-0.6,0-1.1-0.1-1.1-0.1
			c-0.6,0-0.5-0.9,0.1-0.9c0,0,1.8,0.1,2.8,0.1c1.1,0,2.8-0.1,2.8-0.1c0.6,0,0.6,0.8,0.1,0.9c0,0-0.6,0.1-1.2,0.1l3.9,11.4l1.1-3.5
			C31.1,25.7,31.4,24.5,31.4,23.6z M24.4,25.1l-3.2,9.3c1,0.3,2,0.4,3,0.4c1.2,0,2.4-0.2,3.5-0.6c0,0-0.1-0.1-0.1-0.1L24.4,25.1z
			 M33.5,19.1c0,0.3,0.1,0.7,0.1,1.1c0,1.1-0.2,2.3-0.8,3.8l-3.3,9.4c3.2-1.8,5.3-5.3,5.3-9.2C34.8,22.3,34.4,20.6,33.5,19.1z"/>
	</g>
</g>
</svg>
